<?xml version="1.0" standalone="no"?><!DOCTYPE svg PUBLIC "-//W3C//DTD SVG 1.1//EN" "http://www.w3.org/Graphics/SVG/1.1/DTD/svg11.dtd"><svg t="1600337448126" class="icon" viewBox="0 0 1024 1024" version="1.1" xmlns="http://www.w3.org/2000/svg" p-id="8244" width="48" height="48" xmlns:xlink="http://www.w3.org/1999/xlink"><defs><style type="text/css"></style></defs><path d="M990.208 787.968c0-31.744-27.648-58.368-63.488-63.488-1.024-24.064-24.576-43.52-53.76-43.52-29.696 0-53.76 20.48-53.76 45.056 0 15.36 9.728 29.184 24.064 37.376 0 0 0 0.512-0.512 0.512-86.528-17.92-208.896-29.184-345.088-29.184-95.232 0-183.808 5.632-258.048 14.848-3.072-33.28-35.84-59.392-76.288-59.392-38.912 0-70.656 24.576-75.776 55.808-18.944 6.656-32.768 23.04-32.768 41.472 0 2.048 0 4.096 0.512 6.656-20.992 10.24-32.256 22.016-32.256 33.792 0 51.712 212.48 93.184 474.112 93.184 259.584 0 470.528-40.96 474.112-91.648 12.288-10.752 18.944-25.6 18.944-41.472" fill="#F0EFEF" p-id="8245"></path><path d="M901.632 813.056c0 24.576-172.544 44.544-385.024 44.544s-385.024-19.968-385.024-44.544c0-24.576 172.544-44.544 385.024-44.544s385.024 19.968 385.024 44.544" fill="#DFDFDF" p-id="8246"></path><path d="M695.296 695.296c-7.168 0-14.336 0-21.504-0.512v-6.144c7.168 0 14.336 0.512 21.504 0.512h3.072v6.144h-3.072z m9.216 0v-6.144c8.192 0 16.384-0.512 24.576-0.512l0.512 6.144c-8.192 0-16.384 0-25.088 0.512z m-36.864-0.512c-8.192 0-16.384-0.512-24.576-1.024l0.512-6.144c8.192 0.512 16.384 1.024 24.576 1.024l-0.512 6.144z m68.096-0.512l-0.512-6.144c8.704-0.512 16.896-1.024 24.576-2.048l0.512 6.144c-7.68 0.512-16.384 1.536-24.576 2.048z m-99.328-1.024l-24.576-1.536 0.512-6.144 24.576 1.536-0.512 6.144z m130.048-2.048l-0.512-6.144c8.704-1.024 16.384-2.048 24.064-3.584l1.024 6.144c-7.68 1.536-15.872 2.56-24.576 3.584z m-160.768 0c-8.192-0.512-16.384-1.536-24.576-2.56l0.512-6.144c8.192 1.024 16.384 1.536 24.576 2.56l-0.512 6.144z m-30.72-3.072l-24.576-3.072 0.512-6.144 24.576 3.072-0.512 6.144z m222.208-1.536l-1.024-6.144c7.68-1.536 15.872-3.584 23.552-6.144l2.048 5.632c-7.68 2.56-15.872 4.608-24.576 6.656z m-252.928-2.048l-24.576-3.072 1.024-6.144 24.576 3.072-1.024 6.144z m-30.208-4.096c-8.192-1.024-16.384-2.56-24.576-3.584l1.024-6.144c8.192 1.536 16.384 2.56 24.576 3.584l-1.024 6.144z m313.344-2.56l-2.048-5.632c7.68-2.56 14.848-6.144 21.504-10.24l3.072 5.12c-6.656 4.096-14.336 7.68-22.528 10.752z m-344.064-2.56c-8.192-1.536-16.384-2.56-24.576-4.096l1.024-6.144c8.192 1.536 16.384 3.072 24.064 4.096l-0.512 6.144z m-30.72-5.12c-8.192-1.536-16.384-3.072-24.064-4.608l1.024-6.144c8.192 1.536 15.872 3.072 24.064 4.608 0.512 0-1.024 6.144-1.024 6.144z m-30.208-5.632c-8.192-1.536-16.384-3.072-24.064-5.12l1.024-6.144c8.192 1.536 15.872 3.072 24.064 5.12 0.512 0-1.024 6.144-1.024 6.144z m432.64-1.024l-3.584-5.12c7.168-5.12 12.288-10.752 16.384-16.896l5.12 3.072c-4.096 7.68-10.24 13.824-17.92 18.944z m-462.848-5.12c-8.192-1.536-15.872-3.584-24.064-5.12l1.536-6.144c8.192 2.048 15.872 3.584 24.064 5.12l-1.536 6.144z m-30.208-6.656c-8.192-2.048-15.872-3.584-24.064-5.632l1.536-6.144c7.68 2.048 15.872 4.096 24.064 5.632l-1.536 6.144z m-29.696-7.168c-8.192-2.048-15.872-4.096-24.064-6.144l1.536-6.144c7.68 2.048 15.872 4.096 24.064 6.144l-1.536 6.144z m543.744-5.12l-5.632-2.56c2.56-5.632 4.096-12.288 4.096-18.944v-3.584l6.144-0.512v3.584c0 7.68-1.536 15.36-4.608 22.016z m-573.952-2.56c-8.192-2.048-15.872-4.096-24.064-6.656l1.536-5.632c7.68 2.048 15.872 4.608 23.552 6.656l-1.024 5.632z m-29.696-8.704c-8.192-2.56-15.872-4.608-23.552-7.168l2.048-5.632c7.68 2.56 15.36 4.608 23.552 7.168l-2.048 5.632z m-29.696-8.704c-8.192-2.56-15.872-5.12-23.552-7.68l2.048-5.632c7.68 2.56 15.36 5.12 23.552 7.68l-2.048 5.632z m-29.184-9.728c-7.68-2.56-15.36-5.12-23.552-8.192l2.048-5.632c7.68 2.56 15.36 5.632 23.04 8.192l-1.536 5.632z m660.48-1.024c-1.024-7.168-3.584-14.848-7.168-22.528l5.632-2.56c3.584 8.704 6.144 16.384 7.68 24.064l-6.144 1.024zM184.32 599.552c-7.68-3.072-15.36-5.632-23.04-9.216l2.048-5.632c7.168 3.072 14.848 6.144 23.04 8.704l-2.048 6.144z m-28.672-11.264c-7.68-3.072-15.36-6.656-22.528-9.728l2.56-5.632c7.168 3.072 14.848 6.656 22.528 9.728l-2.56 5.632z m708.608-7.68c-3.584-7.168-7.68-14.336-12.288-20.48l5.12-3.584c5.12 7.168 9.216 14.336 12.8 21.504l-5.632 2.56z m-16.384-25.6c-4.608-6.656-9.728-12.8-15.36-18.944l4.608-4.096c5.632 6.144 10.752 12.8 15.36 19.456l-4.608 3.584z m-18.944-24.064c-5.12-5.632-10.752-11.776-16.896-17.92l4.608-4.096c5.632 5.632 11.264 11.776 16.896 17.92l-4.608 4.096z m-20.992-22.016l-17.408-17.408 4.608-4.096c5.632 5.632 11.264 11.776 17.408 17.408l-4.608 4.096z m-21.504-22.016c-5.632-6.144-11.264-11.776-16.896-17.92l4.608-4.096c5.632 6.144 11.264 11.776 16.896 17.92l-4.608 4.096z m-21.504-22.528l-16.896-18.432 4.608-4.096c5.12 6.144 10.752 11.776 16.384 17.92l-4.096 4.608z m-20.992-22.528c-5.632-6.144-10.752-12.288-16.384-18.432l4.608-4.096c5.12 6.144 10.752 12.288 15.872 18.432l-4.096 4.096z m-19.968-23.552c-5.12-6.144-10.752-12.8-15.872-18.944l4.608-3.584c5.12 6.144 10.24 12.288 15.36 18.944l-4.096 3.584z m-19.456-24.064c-5.12-6.656-10.24-13.312-14.848-19.968l5.12-3.584c4.608 6.144 9.728 12.8 14.848 19.456l-5.12 4.096z m-18.432-24.576c-5.12-7.168-9.728-13.824-13.824-20.48l5.12-3.072c4.096 6.656 8.704 13.312 13.824 20.48l-5.12 3.072z m-17.408-25.6c-4.608-7.168-8.704-14.336-12.8-21.504l5.12-3.072c3.584 6.656 7.68 13.824 12.288 20.992l-4.608 3.584z m-15.36-27.136c-3.584-7.168-7.168-14.848-10.24-22.528l5.632-2.048c2.56 7.168 6.144 14.336 10.24 22.016l-5.632 2.56z m-12.8-28.16c-3.072-7.68-5.12-15.872-6.656-24.064l6.144-1.024c1.536 7.168 3.584 14.848 6.656 23.04-0.512-0.512-6.144 2.048-6.144 2.048z m-7.68-30.72c-0.512-4.608-1.024-9.216-1.024-13.824 0-4.096 0.512-7.68 1.024-11.776l6.144 1.024c-0.512 3.584-0.512 7.168-0.512 10.752 0 4.096 0.512 8.704 1.024 12.8l-6.656 1.024z m6.656-30.208l-6.144-1.536c2.048-8.704 5.632-16.384 10.752-23.04l5.12 3.584c-4.608 6.144-7.68 13.312-9.728 20.992z m13.824-25.6l-4.608-4.096c5.632-6.144 12.288-11.264 19.968-15.36l3.072 5.12c-7.168 4.096-13.824 9.216-18.432 14.336z m23.552-16.896l-2.56-5.632c7.68-3.584 15.36-6.656 23.552-8.704l1.536 6.144c-8.192 2.048-15.872 5.12-22.528 8.192z m28.672-9.728l-1.536-6.144c8.192-2.048 16.384-3.072 24.576-4.096l0.512 6.144c-8.192 1.024-15.872 2.56-23.552 4.096z m96.256-4.096l-5.12-0.512 0.512-6.144 5.12 0.512-0.512 6.144z m-66.048-0.512l-0.512-6.144c7.68-0.512 16.384-1.024 25.088-1.024v6.144c-8.704 0-16.896 0.512-24.576 1.024z m54.784-0.512c-8.192-0.512-16.384-1.024-24.576-1.024v-6.144c8.192 0 16.384 0.512 24.576 1.024v6.144z" fill="#D9D9D9" p-id="8247"></path><path d="M686.08 212.48c-4.608 0-8.704-4.096-8.704-8.704 0-4.608 4.096-8.704 8.704-8.704 4.608 0 8.704 4.096 8.704 8.704 0 4.608-4.096 8.704-8.704 8.704z m0-14.848c-3.584 0-5.632 3.072-5.632 6.656 0 3.072 2.56 5.632 5.632 5.632 3.584 0 6.144-2.56 6.144-5.632 0.512-3.584-2.048-6.656-6.144-6.656 0.512 0 0 0 0 0z" fill="#BAD4FF" p-id="8248"></path><path d="M331.776 407.552l-70.656 48.128v333.824s0 20.992 24.064 24.064c24.064 3.072 487.936 0 487.936 0s24.064-9.728 24.064-25.6v-338.944l-70.656-41.984h-394.752z" fill="#FFFFFF" p-id="8249"></path><path d="M422.912 822.272c-126.976 0-135.168-1.024-138.24-1.536-24.064-3.072-30.208-22.016-30.208-31.232v-337.92l75.776-51.712h398.848l75.776 45.056v343.04c0 20.48-25.6 31.232-28.672 32.256l-2.56 0.512c-2.048 0-207.872 1.536-350.72 1.536z m-154.112-363.008v330.24c0 2.56 1.024 14.848 17.92 16.896 4.608 0.512 32.256 1.536 136.192 1.536 136.704 0 330.752-1.536 349.184-1.536 5.632-2.56 18.432-10.24 18.432-18.432v-334.848l-65.536-38.4h-390.656l-65.536 44.544z" fill="#A9B1B6" p-id="8250"></path><path d="M631.296 386.56v203.776l-108.032 77.824-188.416-145.408v-200.704s-2.048-23.04 16.384-24.576c9.728-1.024 74.24-0.512 131.072 0h1.536c47.616 0.512 89.088 1.024 89.088 1.024l58.368 88.064z" fill="#FFFFFF" p-id="8251"></path><path d="M523.264 675.328l-194.048-150.016v-203.776c0-1.024-1.024-13.824 6.144-22.528 3.584-4.608 8.704-7.168 14.848-7.68 3.584-0.512 14.848-0.512 33.792-0.512 26.112 0 63.488 0.512 97.792 0.512h1.536c47.616 0.512 89.088 1.024 89.088 1.024h3.072l60.928 92.16v208.896l-113.152 81.92z m-182.784-155.648l182.784 141.312 101.888-73.728v-199.168l-55.808-84.48c-10.24 0-46.08-0.512-86.016-1.024h-1.536c-34.304-0.512-71.68-0.512-97.792-0.512-23.04 0-30.72 0-33.28 0.512-12.288 1.024-11.264 16.384-10.752 18.432l0.512 198.656z" fill="#A9B1B6" p-id="8252"></path><path d="M349.184 363.008h227.328v48.128h-227.328v-48.128zM377.856 433.152h165.888v17.408h-165.888v-17.408z m0 41.472h219.648v13.824h-219.648v-13.824z" fill="#EAE9E9" p-id="8253"></path><path d="M432.64 386.56l-0.512 210.944 93.184 72.192 203.776-148.992v-199.168s2.048-23.04-16.384-24.576c-9.728-1.024-74.24-0.512-131.072 0h-1.536c-47.616 0.512-89.088 1.024-89.088 1.024l-58.368 88.576z" fill="#FFFFFF" p-id="8254"></path><path d="M525.312 676.864l-98.816-76.8 0.512-215.552 1.024-1.536 59.904-90.624h3.072s41.984-0.512 89.088-1.024h1.536c34.304-0.512 71.68-0.512 97.792-0.512 18.944 0 30.208 0 33.792 0.512 6.144 0.512 11.264 3.072 14.848 7.68 7.68 8.704 6.656 22.016 6.144 23.04v201.728l-208.896 153.088z m-87.552-81.92l87.552 67.584 198.144-144.896v-196.096c0-2.048 1.024-17.92-10.752-18.944-2.56 0-10.24-0.512-33.28-0.512-26.112 0-63.488 0.512-97.792 0.512h-1.536c-39.936 0.512-75.776 1.024-86.016 1.024l-55.808 84.48-0.512 206.848z" fill="#A9B1B6" p-id="8255"></path><path d="M487.424 363.008h227.328v48.128h-227.328v-48.128zM548.864 433.152h165.888v17.408h-165.888v-17.408z m-53.76 41.472h219.648v13.824h-219.648v-13.824z" fill="#EAE9E9" p-id="8256"></path><path d="M525.312 672.768l-1.536-1.024-143.872-111.616v-206.848l0.512-0.512 58.88-89.088h1.024s41.984-0.512 89.088-1.024h1.536c47.616 0.512 89.088 1.024 89.088 1.024h1.024l59.392 89.6v205.824l-1.024 0.512-154.112 113.152z m-140.8-115.2l140.8 109.056 151.04-110.592v-201.728l-57.344-86.528c-7.168 0-45.056-0.512-88.064-1.024h-1.536c-42.496 0.512-80.384 1.024-88.064 1.024l-57.344 86.528 0.512 203.264z" fill="#19AA97" p-id="8257"></path><path d="M829.952 145.408l-31.232 50.176v0.512h31.744v8.192h-44.544v-5.632l31.744-50.688v-0.512H788.48v-8.192h41.472v6.144zM883.2 112.64l-19.968 32.256h19.968v5.12H855.04v-3.584l19.968-32.256h-18.432v-5.12h26.624v3.584zM678.912 353.792v203.776l-153.6 112.128-2.048-1.536-140.8-109.056v-269.824s-2.048-23.04 16.384-24.576c9.728-1.024 74.24-0.512 131.072 0h1.536c47.616 0.512 89.088 1.024 89.088 1.024l58.368 88.064z" fill="#BAD4FF" p-id="8258"></path><path d="M525.312 676.864l-148.992-115.2v-272.896c0-1.024-1.024-13.824 6.144-22.528 3.584-4.608 8.704-7.168 15.36-7.68 3.584-0.512 14.848-0.512 33.792-0.512 26.112 0 63.488 0.512 97.792 0.512h1.536c47.616 0.512 89.088 1.024 89.088 1.024h3.072l60.928 92.16V560.128l-158.72 116.736z m-137.216-120.832l137.728 106.496 147.456-108.032v-199.168l-55.808-84.48c-10.24 0-46.08-0.512-86.016-1.024h-1.536c-34.304-0.512-71.68-0.512-97.792-0.512-23.04 0-30.72 0-32.768 0.512-12.288 1.024-11.264 16.384-10.752 18.432l-0.512 267.776z" fill="#4E8CEE" p-id="8259"></path><path d="M430.08 342.016h200.704v32.768H430.08v-32.768zM430.08 406.016h123.904v8.704H430.08v-8.704zM430.08 454.656h191.488v7.168H430.08v-7.168zM430.08 493.056h107.52v7.68h-107.52v-7.68zM430.08 532.48h194.56v10.24h-194.56v-10.24z" fill="#4E8CEE" p-id="8260"></path><path d="M615.424 324.608l54.784 22.528-48.64-75.264c-26.624 37.888-24.576 35.84-1.536-3.584-27.136 46.08-14.336 24.064-19.968 33.28-8.704 14.336 15.36 23.04 15.36 23.04z" fill="#BAD4FF" p-id="8261"></path><path d="M684.544 359.424l-71.68-29.184c-1.536-0.512-15.872-6.144-19.456-16.896-1.024-3.584-2.048-8.704 2.048-14.848 0.512-1.024 1.024-2.048 1.536-2.56 0-0.512 1.024-1.536 4.096-7.168l13.824-23.552 2.56 1.536 4.096-5.632 62.976 98.304z m-78.336-56.32l-1.024 1.536c-1.536 2.56-1.024 4.096-1.024 5.12 1.536 4.096 8.704 8.192 12.8 9.728l37.888 15.36-33.792-52.736c-8.704 13.312-12.8 18.432-14.848 20.992z" fill="#4E8CEE" p-id="8262"></path><path d="M524.8 742.4l-102.912-73.728 8.192-11.776 94.208 67.584 87.552-67.072 8.704 11.264-95.744 73.728z" fill="#A9B1B6" p-id="8263"></path><path d="M100.864 565.76c-3.584-3.584-10.24-6.656-18.432-6.656 0 0 10.24 0 17.408-6.144 4.608-4.096 8.192-10.24 8.192-19.456 0 0 0 12.288 8.192 19.968 3.584 3.584 9.728 6.144 17.408 6.144 0 0-9.728 0.512-17.408 6.144-5.12 4.096-8.704 10.752-8.704 19.456 1.024-0.512 1.536-11.776-6.656-19.456M888.32 573.952c-2.048-2.048-5.632-3.584-9.728-3.584 0 0 5.12 0 9.216-3.072 2.56-2.048 4.096-5.632 4.096-10.24 0 0 0 6.144 4.096 10.24 2.048 2.048 5.12 3.072 9.216 3.072 0 0-5.12 0-8.704 3.072-2.56 2.048-4.608 5.632-4.608 10.24 0 0 0.512-5.632-3.584-9.728M159.232 516.608c-3.072-3.072-8.192-5.12-14.336-5.12 0 0 7.68 0 13.824-4.608 3.584-3.072 6.656-8.192 6.656-15.36 0 0 0 9.728 6.656 15.36 3.072 2.56 7.68 4.608 13.824 4.608 0 0-7.68 0-13.312 4.608-3.584 3.072-6.656 8.192-6.656 15.36-1.024 0-0.512-9.216-6.656-14.848" fill="#BAD4FF" p-id="8264"></path><path d="M525.312 678.912l-225.28-173.568 8.704-11.264 33.28 25.088 183.808 141.824 228.864-166.912 8.704 11.776-238.08 173.056z" fill="#A9B1B6" p-id="8265"></path></svg>